<?xml version="1.0" standalone="no"?>
<!DOCTYPE svg PUBLIC "-//W3C//DTD SVG 20010904//EN"
 "http://www.w3.org/TR/2001/REC-SVG-20010904/DTD/svg10.dtd">
<svg version="1.0" xmlns="http://www.w3.org/2000/svg"
 width="155.000000pt" height="97.000000pt" viewBox="0 0 155.000000 97.000000"
 preserveAspectRatio="xMidYMid meet">

<g transform="translate(0.000000,97.000000) scale(0.100000,-0.100000)"
fill="#000000" stroke="none">
<path d="M0 945 c0 -24 2 -25 74 -25 41 0 81 -3 90 -6 48 -18 -17 -90 -107
-118 l-57 -18 0 -389 0 -389 775 0 775 0 0 485 0 485 -775 0 -775 0 0 -25z
m815 -65 c10 11 22 17 26 14 12 -7 11 -91 -1 -99 -6 -4 -10 9 -10 31 0 35 -1
36 -18 21 -14 -13 -21 -14 -30 -5 -9 9 -12 5 -12 -20 0 -18 -4 -32 -10 -32 -5
0 -10 26 -10 57 l0 56 23 -21 c24 -22 24 -22 42 -2z m133 4 c26 -18 28 -50 5
-76 -22 -25 -59 -23 -77 4 -21 30 -20 44 4 68 24 24 38 25 68 4z m77 -21 l25
-38 0 33 c0 17 5 32 10 32 6 0 10 -22 10 -50 0 -57 -11 -63 -37 -20 -22 38
-33 38 -33 -1 0 -17 -4 -28 -10 -24 -17 11 -12 105 6 105 2 0 15 -17 29 -37z
m132 -15 c21 -55 21 -70 1 -50 -16 16 -55 15 -61 0 -2 -7 -7 -11 -10 -8 -7 7
32 110 42 110 5 0 17 -24 28 -52z m93 37 c7 -9 10 -19 6 -22 -4 -4 -11 -1 -16
6 -5 9 -15 11 -26 6 -16 -6 -15 -9 14 -21 17 -8 32 -20 32 -27 0 -18 -21 -37
-41 -37 -22 0 -44 26 -29 35 5 3 10 1 10 -4 0 -6 9 -11 20 -11 28 0 25 19 -5
30 -15 6 -25 17 -25 29 0 31 39 41 60 16z m90 6 c0 -5 -7 -11 -15 -15 -10 -3
-16 -21 -17 -48 l-1 -43 -4 43 c-3 25 -10 45 -19 49 -26 10 -14 23 21 23 19 0
35 -4 35 -9z m27 -73 c-2 -18 -4 -6 -4 27 0 33 2 48 4 33 2 -15 2 -42 0 -60z
m108 66 c21 -21 13 -29 -14 -12 -17 11 -23 10 -37 -4 -10 -10 -14 -23 -9 -37
7 -23 34 -28 53 -9 6 6 15 8 19 4 10 -9 -25 -36 -46 -36 -23 0 -51 31 -51 56
0 23 33 54 57 54 6 0 19 -7 28 -16z m-1015 -54 c0 -5 -6 -10 -12 -10 -9 0 -8
-4 2 -10 12 -8 13 -11 1 -19 -10 -7 -11 -10 -1 -16 10 -6 9 -11 -5 -21 -12 -9
-16 -23 -13 -48 4 -32 1 -36 -19 -36 -13 0 -23 -5 -23 -11 0 -8 17 -9 53 -5
46 6 54 5 54 -9 0 -13 -7 -16 -29 -13 -16 3 -31 1 -34 -4 -3 -4 14 -8 37 -8
73 0 36 -10 -52 -14 -53 -3 -73 -2 -54 4 30 8 30 8 -9 9 -29 1 -37 5 -33 15 4
9 -1 17 -11 20 -9 3 2 4 26 2 23 -2 40 0 36 5 -3 5 -15 9 -27 9 -12 0 -29 5
-37 10 -12 8 -11 10 6 10 28 0 39 56 15 70 -14 9 -14 11 -1 20 10 6 11 10 3
10 -20 0 -15 20 5 21 16 1 16 2 0 6 -41 11 -13 23 52 23 40 0 70 -4 70 -10z
m-165 -67 c-4 -10 -9 -36 -12 -58 -5 -48 -13 -59 -13 -19 l0 29 -14 -27 c-8
-15 -12 -37 -10 -50 4 -20 3 -21 -4 -4 -8 19 -9 18 -17 -5 -4 -13 -8 -44 -8
-69 0 -42 0 -43 -4 -7 -8 72 -23 25 -25 -76 l-2 -102 -5 80 c-9 128 -23 69
-20 -85 2 -77 0 -143 -4 -146 -4 -4 -7 55 -7 132 l0 139 -26 -45 c-15 -25 -30
-58 -33 -74 -8 -38 -31 -47 -31 -12 0 30 45 113 158 293 74 118 92 143 77 106z
m495 -73 l0 -50 60 0 60 0 0 50 c0 43 3 50 20 50 19 0 20 -7 20 -125 0 -118
-1 -125 -20 -125 -18 0 -20 7 -20 55 l0 55 -60 0 -60 0 0 -55 c0 -48 -2 -55
-20 -55 -19 0 -20 7 -20 125 0 118 1 125 20 125 17 0 20 -7 20 -50z m260 -75
c0 -118 -1 -125 -20 -125 -19 0 -20 7 -20 125 0 118 1 125 20 125 19 0 20 -7
20 -125z m102 23 l3 -103 58 -3 c49 -3 57 -6 57 -22 0 -18 -7 -20 -80 -20
l-80 0 0 125 c0 118 1 125 20 125 18 0 20 -8 22 -102z m188 -3 l0 -105 60 0
c53 0 60 -2 60 -20 0 -18 -7 -20 -80 -20 l-80 0 0 125 c0 118 1 125 20 125 19
0 20 -7 20 -105z m-1073 -7 c-3 -8 -6 -5 -6 6 -1 11 2 17 5 13 3 -3 4 -12 1
-19z m-18 -88 c1 -20 -1 -22 -9 -10 -5 8 -9 31 -9 50 1 32 2 33 9 10 4 -14 8
-36 9 -50z m179 43 c-15 -2 -42 -2 -60 0 -18 2 -6 4 27 4 33 0 48 -2 33 -4z
m95 -19 c-7 -3 -9 -12 -6 -20 4 -10 0 -12 -11 -8 -9 3 -14 10 -11 15 3 4 -34
10 -82 12 l-88 3 105 1 c58 1 100 -1 93 -3z m-145 -21 c-10 -2 -26 -2 -35 0
-10 3 -2 5 17 5 19 0 27 -2 18 -5z m95 0 c-7 -2 -19 -2 -25 0 -7 3 -2 5 12 5
14 0 19 -2 13 -5z m-58 -23 c16 -7 13 -9 -15 -9 -19 0 -55 4 -80 8 l-45 8 60
1 c33 0 69 -3 80 -8z m103 -7 c-16 -2 -40 -2 -55 0 -16 2 -3 4 27 4 30 0 43
-2 28 -4z m41 -29 c7 -7 -149 -2 -224 6 -45 5 -19 6 75 3 80 -3 147 -7 149 -9z
m-189 -24 l55 -7 -70 -1 c-38 0 -79 3 -90 8 -16 7 -13 9 15 8 19 0 60 -3 90
-8z m133 -7 c-13 -2 -35 -2 -50 0 -16 2 -5 4 22 4 28 0 40 -2 28 -4z m54 1
c-3 -3 -12 -4 -19 -1 -8 3 -5 6 6 6 11 1 17 -2 13 -5z m-422 -213 c-4 -94 -11
-171 -16 -171 -11 0 -13 43 -10 205 2 132 7 163 23 147 7 -7 7 -70 3 -181z
m138 182 c-7 -2 -19 -2 -25 0 -7 3 -2 5 12 5 14 0 19 -2 13 -5z m147 -1 c0 -5
-26 -7 -57 -5 -84 6 -88 11 -10 12 37 1 67 -3 67 -7z m405 -8 c21 -21 13 -29
-15 -14 -14 7 -26 8 -31 3 -12 -12 7 -29 36 -35 31 -5 32 -45 2 -59 -26 -12
-67 1 -67 21 0 13 13 13 27 -1 12 -12 43 -6 43 9 0 5 -14 15 -32 23 -38 17
-44 31 -23 53 21 20 39 20 60 0z m113 -2 c2 -7 -6 -12 -17 -12 -19 0 -21 -6
-21 -51 0 -31 -4 -48 -10 -44 -5 3 -10 26 -10 51 0 32 -4 44 -15 44 -29 0 -15
19 18 23 42 5 50 3 55 -11z m410 -2 c12 -12 22 -32 22 -45 0 -32 -33 -65 -63
-65 -54 0 -80 78 -37 112 29 23 51 23 78 -2z m112 5 c17 -20 5 -32 -15 -15
-13 11 -18 11 -28 0 -7 -8 -8 -14 -2 -16 60 -24 74 -43 50 -68 -21 -20 -49
-20 -70 0 -19 20 -12 32 10 14 15 -13 45 -7 45 9 0 5 -13 14 -30 20 -34 11
-41 44 -12 60 24 15 38 13 52 -4z m-892 -2 c-21 -2 -55 -2 -75 0 -21 2 -4 4
37 4 41 0 58 -2 38 -4z m402 -32 c0 -41 20 -67 45 -57 10 4 15 19 15 51 0 25
5 45 10 45 17 0 12 -87 -6 -104 -37 -38 -84 -4 -84 61 0 23 5 43 10 43 6 0 10
-17 10 -39z m198 27 c16 -16 15 -73 -2 -87 -8 -7 -30 -15 -50 -18 l-36 -6 0
62 0 61 38 0 c21 0 43 -5 50 -12z m52 -49 c0 -37 -4 -58 -10 -54 -5 3 -10 31
-10 61 0 30 5 54 10 54 6 0 10 -27 10 -61z m-967 24 c-7 -2 -19 -2 -25 0 -7 3
-2 5 12 5 14 0 19 -2 13 -5z m332 -13 c17 -4 -44 -5 -135 -2 -91 2 -167 6
-169 8 -8 7 274 2 304 -6z m45 -52 c0 -10 -399 -1 -410 9 -2 2 89 3 203 2 121
-1 207 -6 207 -11z m34 -57 c-5 -6 -100 -7 -239 -2 l-230 8 239 1 c148 1 236
-2 230 -7z m-6 -67 c17 -3 32 -9 32 -14 0 -10 -476 -4 -492 6 -4 3 -6 8 -4 12
5 8 414 5 464 -4z m42 -89 c17 -21 -1 -23 -286 -30 -234 -6 -262 -5 -267 9 -5
12 0 16 21 17 15 0 36 4 47 8 11 5 122 9 247 9 180 1 229 -2 238 -13z"/>
<path d="M890 866 c-27 -33 18 -72 48 -42 13 13 14 20 6 34 -15 23 -38 26 -54
8z"/>
<path d="M1120 845 c0 -8 5 -15 10 -15 6 0 10 7 10 15 0 8 -4 15 -10 15 -5 0
-10 -7 -10 -15z"/>
<path d="M378 813 c6 -2 18 -2 25 0 6 3 1 5 -13 5 -14 0 -19 -2 -12 -5z"/>
<path d="M360 786 c0 -2 11 -6 25 -8 14 -3 25 -1 25 3 0 5 -11 9 -25 9 -14 0
-25 -2 -25 -4z"/>
<path d="M362 723 c2 -31 7 -39 26 -41 20 -3 22 1 22 37 0 37 -2 41 -26 41
-23 0 -25 -3 -22 -37z"/>
<path d="M1277 393 c-14 -13 -6 -53 12 -63 37 -19 70 16 49 54 -9 16 -49 22
-61 9z"/>
<path d="M1100 361 c0 -44 12 -51 44 -28 28 20 18 61 -16 65 -27 3 -28 1 -28
-37z"/>
</g>
</svg>
